<svg xmlns="http://www.w3.org/2000/svg" version="1.1" xmlns:xlink="http://www.w3.org/1999/xlink" xmlns:svgjs="http://svgjs.dev/svgjs" viewBox="0 0 800 800"><g fill="hsl(70, 0%, 94%)" transform="matrix(1.2,0,0,1.2,-80.25,-80.94999999999999)"><circle r="2.5" cx="405" cy="400"></circle><circle r="2.5" cx="403" cy="405"></circle><circle r="2.5" cx="397" cy="406"></circle><circle r="2.5" cx="392" cy="402"></circle><circle r="3" cx="394" cy="394"></circle><circle r="3" cx="402" cy="390"></circle><circle r="3" cx="410" cy="396"></circle><circle r="3" cx="410" cy="406"></circle><circle r="3" cx="400" cy="413"></circle><circle r="3" cx="389" cy="408"></circle><circle r="3" cx="386" cy="395"></circle><circle r="3.5" cx="397" cy="385"></circle><circle r="3.5" cx="412" cy="388"></circle><circle r="3.5" cx="417" cy="403"></circle><circle r="3.5" cx="408" cy="417"></circle><circle r="3.5" cx="389" cy="417"></circle><circle r="3.5" cx="379" cy="401"></circle><circle r="3.5" cx="387" cy="382"></circle><circle r="4" cx="408" cy="379"></circle><circle r="4" cx="423" cy="395"></circle><circle r="4" cx="418" cy="417"></circle><circle r="4" cx="396" cy="425"></circle><circle r="4" cx="376" cy="411"></circle><circle r="4" cx="377" cy="386"></circle><circle r="4" cx="399" cy="372"></circle><circle r="4.5" cx="424" cy="383"></circle><circle r="4.5" cx="429" cy="410"></circle><circle r="4.5" cx="408" cy="431"></circle><circle r="4.5" cx="378" cy="424"></circle><circle r="4.5" cx="367" cy="395"></circle><circle r="4.5" cx="385" cy="369"></circle><circle r="4.5" cx="418" cy="370"></circle><circle r="5" cx="436" cy="398"></circle><circle r="5" cx="423" cy="430"></circle><circle r="5" cx="387" cy="436"></circle><circle r="5" cx="362" cy="410"></circle><circle r="5" cx="370" cy="373"></circle><circle r="5" cx="405" cy="359"></circle><circle r="5" cx="438" cy="381"></circle><circle r="5.5" cx="437" cy="422"></circle><circle r="5.5" cx="403" cy="444"></circle><circle r="5.5" cx="364" cy="428"></circle><circle r="5.5" cx="356" cy="386"></circle><circle r="5.5" cx="387" cy="355"></circle><circle r="5.5" cx="431" cy="363"></circle><circle r="5.5" cx="449" cy="406"></circle><circle r="6" cx="423" cy="445"></circle><circle r="6" cx="375" cy="445"></circle><circle r="6" cx="348" cy="404"></circle><circle r="6" cx="367" cy="359"></circle><circle r="6" cx="416" cy="348"></circle><circle r="6" cx="453" cy="385"></circle><circle r="6.5" cx="443" cy="436"></circle><circle r="6.5" cx="394" cy="457"></circle><circle r="6.5" cx="349" cy="427"></circle><circle r="6.5" cx="348" cy="372"></circle><circle r="6.5" cx="394" cy="340"></circle><circle r="6.5" cx="447" cy="361"></circle><circle r="6.5" cx="459" cy="418"></circle><circle r="7" cx="419" cy="460"></circle><circle r="7" cx="360" cy="450"></circle><circle r="7" cx="335" cy="394"></circle><circle r="7" cx="368" cy="342"></circle><circle r="7" cx="431" cy="341"></circle><circle r="7" cx="467" cy="392"></circle><circle r="7" cx="444" cy="452"></circle><circle r="7.5" cx="381" cy="467"></circle><circle r="7.5" cx="333" cy="422"></circle><circle r="7.5" cx="344" cy="356"></circle><circle r="7.5" cx="405" cy="328"></circle><circle r="7.5" cx="464" cy="364"></circle><circle r="7.5" cx="467" cy="433"></circle><circle r="7.5" cx="409" cy="475"></circle><circle r="8" cx="342" cy="450"></circle><circle r="8" cx="325" cy="380"></circle><circle r="8" cx="375" cy="326"></circle><circle r="8" cx="448" cy="337"></circle><circle r="8" cx="480" cy="405"></circle><circle r="8" cx="441" cy="470"></circle><circle r="8" cx="364" cy="474"></circle><circle r="8.5" cx="317" cy="412"></circle><circle r="8.5" cx="344" cy="337"></circle><circle r="8.5" cx="421" cy="317"></circle><circle r="8.5" cx="481" cy="371"></circle><circle r="8.5" cx="470" cy="452"></circle><circle r="8.5" cx="396" cy="488"></circle><circle r="8.5" cx="324" cy="446"></circle><circle r="9" cx="318" cy="362"></circle><circle r="9" cx="386" cy="310"></circle><circle r="9" cx="468" cy="338"></circle><circle r="9" cx="491" cy="422"></circle><circle r="9" cx="433" cy="488"></circle><circle r="9" cx="344" cy="477"></circle><circle r="9" cx="304" cy="397"></circle><circle r="9.5" cx="349" cy="318"></circle><circle r="9.5" cx="440" cy="311"></circle><circle r="9.5" cx="498" cy="383"></circle><circle r="9.5" cx="469" cy="473"></circle><circle r="9.5" cx="378" cy="499"></circle><circle r="9.5" cx="305" cy="437"></circle><circle r="9.5" cx="316" cy="341"></circle></g></svg>