<svg xmlns="http://www.w3.org/2000/svg" version="1.1" xmlns:xlink="http://www.w3.org/1999/xlink" xmlns:svgjs="http://svgjs.dev/svgjs" viewBox="0 0 800 800"><g fill="hsl(265, 55%, 20%)" transform="matrix(4,0,0,4,-1194,-1203.75)"><circle r="0.5" cx="405" cy="400" opacity="0.64"></circle><circle r="0.5" cx="405" cy="403" opacity="0.99"></circle><circle r="0.5" cx="402" cy="406" opacity="0.39"></circle><circle r="0.5" cx="398" cy="407" opacity="0.25"></circle><circle r="0.5" cx="395" cy="405" opacity="0.47"></circle><circle r="0.5" cx="392" cy="401" opacity="0.72"></circle><circle r="0.5" cx="392" cy="396" opacity="0.54"></circle><circle r="1" cx="395" cy="392" opacity="0.47"></circle><circle r="1" cx="401" cy="390" opacity="0.12"></circle><circle r="1" cx="407" cy="392" opacity="0.21"></circle><circle r="1" cx="411" cy="397" opacity="0.47"></circle><circle r="1" cx="411" cy="404" opacity="0.74"></circle><circle r="1" cx="407" cy="410" opacity="0.94"></circle><circle r="1" cx="401" cy="413" opacity="0.70"></circle><circle r="1" cx="393" cy="411" opacity="0.68"></circle><circle r="1" cx="387" cy="406" opacity="0.16"></circle><circle r="1" cx="386" cy="397" opacity="0.58"></circle><circle r="1" cx="389" cy="389" opacity="0.97"></circle><circle r="1" cx="397" cy="385" opacity="0.84"></circle><circle r="1.5" cx="406" cy="385" opacity="0.19"></circle><circle r="1.5" cx="414" cy="391" opacity="0.73"></circle><circle r="1.5" cx="418" cy="401" opacity="0.92"></circle><circle r="1.5" cx="415" cy="411" opacity="0.12"></circle><circle r="1.5" cx="406" cy="418" opacity="0.42"></circle><circle r="1.5" cx="395" cy="419" opacity="0.93"></circle><circle r="1.5" cx="385" cy="413" opacity="0.11"></circle><circle r="1.5" cx="380" cy="402" opacity="0.26"></circle><circle r="1.5" cx="381" cy="390" opacity="0.28"></circle><circle r="1.5" cx="390" cy="381" opacity="0.14"></circle><circle r="1.5" cx="403" cy="378" opacity="0.63"></circle><circle r="1.5" cx="415" cy="383" opacity="0.77"></circle><circle r="2" cx="423" cy="394" opacity="0.82"></circle><circle r="2" cx="423" cy="408" opacity="0.25"></circle><circle r="2" cx="414" cy="420" opacity="0.43"></circle><circle r="2" cx="401" cy="425" opacity="0.18"></circle><circle r="2" cx="386" cy="422" opacity="0.53"></circle><circle r="2" cx="375" cy="410" opacity="0.61"></circle><circle r="2" cx="373" cy="394" opacity="1.00"></circle><circle r="2" cx="381" cy="380" opacity="0.77"></circle><circle r="2" cx="395" cy="372" opacity="0.23"></circle><circle r="2" cx="412" cy="374" opacity="0.78"></circle><circle r="2" cx="425" cy="385" opacity="0.41"></circle><circle r="2" cx="430" cy="402" opacity="0.67"></circle><circle r="2.5" cx="424" cy="419" opacity="0.97"></circle><circle r="2.5" cx="409" cy="430" opacity="0.99"></circle><circle r="2.5" cx="391" cy="431" opacity="0.29"></circle><circle r="2.5" cx="375" cy="420" opacity="0.98"></circle><circle r="2.5" cx="367" cy="402" opacity="0.91"></circle><circle r="2.5" cx="371" cy="383" opacity="0.76"></circle><circle r="2.5" cx="385" cy="369" opacity="0.98"></circle><circle r="2.5" cx="405" cy="365" opacity="0.77"></circle><circle r="2.5" cx="424" cy="374" opacity="0.50"></circle><circle r="2.5" cx="435" cy="392" opacity="0.44"></circle><circle r="2.5" cx="434" cy="414" opacity="0.77"></circle><circle r="2.5" cx="421" cy="431" opacity="0.88"></circle><circle r="2.5" cx="399" cy="438" opacity="0.46"></circle><circle r="3" cx="378" cy="432" opacity="0.64"></circle><circle r="3" cx="363" cy="414" opacity="0.88"></circle><circle r="3" cx="361" cy="390" opacity="0.74"></circle><circle r="3" cx="373" cy="370" opacity="0.14"></circle><circle r="3" cx="395" cy="359" opacity="0.21"></circle><circle r="3" cx="419" cy="363" opacity="0.66"></circle><circle r="3" cx="437" cy="380" opacity="0.53"></circle><circle r="3" cx="443" cy="404" opacity="0.23"></circle><circle r="3" cx="433" cy="428" opacity="0.37"></circle><circle r="3" cx="412" cy="442" opacity="0.82"></circle><circle r="3" cx="386" cy="442" opacity="0.93"></circle><circle r="3" cx="364" cy="427" opacity="0.56"></circle><circle r="3.5" cx="354" cy="402" opacity="0.34"></circle><circle r="3.5" cx="361" cy="375" opacity="0.36"></circle><circle r="3.5" cx="381" cy="357" opacity="0.93"></circle><circle r="3.5" cx="409" cy="353" opacity="0.84"></circle><circle r="3.5" cx="434" cy="366" opacity="0.33"></circle><circle r="3.5" cx="448" cy="391" opacity="0.29"></circle><circle r="3.5" cx="445" cy="420" opacity="0.68"></circle><circle r="3.5" cx="426" cy="443" opacity="0.66"></circle><circle r="3.5" cx="398" cy="451" opacity="0.23"></circle><circle r="3.5" cx="369" cy="441" opacity="0.70"></circle><circle r="3.5" cx="351" cy="416" opacity="0.78"></circle><circle r="3.5" cx="350" cy="386" opacity="0.84"></circle><circle r="4" cx="366" cy="359" opacity="0.48"></circle><circle r="4" cx="395" cy="347" opacity="0.79"></circle><circle r="4" cx="426" cy="353" opacity="0.45"></circle><circle r="4" cx="449" cy="375" opacity="0.32"></circle><circle r="4" cx="455" cy="407" opacity="0.26"></circle><circle r="4" cx="442" cy="438" opacity="0.25"></circle><circle r="4" cx="413" cy="455" opacity="0.24"></circle><circle r="4" cx="380" cy="453" opacity="0.49"></circle><circle r="4" cx="353" cy="433" opacity="0.46"></circle><circle r="4" cx="342" cy="400" opacity="0.36"></circle><circle r="4" cx="351" cy="367" opacity="0.92"></circle><circle r="4" cx="378" cy="345" opacity="0.95"></circle><circle r="4" cx="413" cy="341" opacity="0.26"></circle><circle r="4.5" cx="445" cy="359" opacity="0.50"></circle><circle r="4.5" cx="461" cy="391" opacity="0.69"></circle><circle r="4.5" cx="456" cy="427" opacity="0.45"></circle><circle r="4.5" cx="431" cy="454" opacity="0.70"></circle><circle r="4.5" cx="395" cy="463" opacity="0.16"></circle><circle r="4.5" cx="360" cy="450" opacity="0.23"></circle><circle r="4.5" cx="338" cy="418" opacity="0.90"></circle><circle r="4.5" cx="338" cy="380" opacity="0.45"></circle><circle r="4.5" cx="360" cy="348" opacity="0.67"></circle><circle r="4.5" cx="396" cy="334" opacity="0.45"></circle><circle r="4.5" cx="434" cy="343" opacity="0.51"></circle><circle r="4.5" cx="461" cy="372" opacity="0.57"></circle><circle r="5" cx="467" cy="411" opacity="0.15"></circle><circle r="5" cx="449" cy="448" opacity="0.19"></circle><circle r="5" cx="414" cy="468" opacity="0.13"></circle><circle r="5" cx="373" cy="464" opacity="0.55"></circle><circle r="5" cx="341" cy="438" opacity="0.94"></circle><circle r="5" cx="329" cy="398" opacity="0.43"></circle></g></svg>